<svg width="38" height="38" viewBox="0 0 38 38" fill="none" xmlns="http://www.w3.org/2000/svg">
<g clip-path="url(#clip0_227_1024)">
<path fill-rule="evenodd" clip-rule="evenodd" d="M19 27.9412C14.0619 27.9412 10.0588 23.9381 10.0588 19C10.0588 14.0619 14.0619 10.0588 19 10.0588C23.9381 10.0588 27.9412 14.0619 27.9412 19C27.9412 23.9381 23.9381 27.9412 19 27.9412ZM17.9673 23.1744L18.9151 23.7668C19.1768 23.9304 19.5216 23.8508 19.6852 23.589L22.1831 19.5923C22.6484 18.8479 22.1132 17.8823 21.2353 17.8823H18.7813L20.2105 15.5957C20.3741 15.3339 20.2945 14.9891 20.0328 14.8256L19.0851 14.2332C18.8234 14.0696 18.4785 14.1492 18.315 14.411L15.8171 18.4077C15.3518 19.1521 15.887 20.1177 16.7648 20.1177H19.2189L17.7897 22.4043C17.626 22.6661 17.7056 23.0109 17.9673 23.1744ZM17.8823 0.558793C17.8823 0.250117 18.1325 0 18.4411 0H19.5588C19.8674 0 20.1176 0.250191 20.1176 0.558793V6.14702C20.1176 6.4557 19.8674 6.70581 19.5588 6.70581H18.4411C18.1325 6.70581 17.8823 6.45562 17.8823 6.14702V0.558793ZM31.2496 5.16986C31.4678 4.95158 31.8217 4.95158 32.0399 5.16986L32.8301 5.96014C33.0483 6.17841 33.0483 6.53222 32.8301 6.75042L28.8787 10.7019C28.6605 10.9201 28.3066 10.9201 28.0884 10.7019L27.2981 9.91162C27.0799 9.69334 27.0799 9.33954 27.2981 9.12134L31.2496 5.16986ZM37.4412 17.8823C37.7498 17.8823 38 18.1325 38 18.4411V19.5588C38 19.8675 37.7498 20.1176 37.4412 20.1176H31.853C31.5444 20.1176 31.2942 19.8674 31.2942 19.5588V18.4411C31.2942 18.1325 31.5444 17.8823 31.853 17.8823H37.4412ZM32.8301 31.2496C33.0483 31.4679 33.0483 31.8217 32.8301 32.0399L32.0399 32.8301C31.8217 33.0484 31.4678 33.0484 31.2496 32.8301L27.2981 28.8787C27.0799 28.6605 27.0799 28.3066 27.2981 28.0884L28.0884 27.2981C28.3066 27.0799 28.6605 27.0799 28.8787 27.2981L32.8301 31.2496ZM20.1177 37.4412C20.1177 37.7499 19.8675 38 19.5589 38H18.4412C18.1326 38 17.8824 37.7498 17.8824 37.4412V31.853C17.8824 31.5443 18.1326 31.2942 18.4412 31.2942H19.5589C19.8675 31.2942 20.1177 31.5444 20.1177 31.853V37.4412ZM6.75042 32.8301C6.53222 33.0484 6.17834 33.0484 5.96014 32.8301L5.16986 32.0399C4.95165 31.8216 4.95165 31.4678 5.16986 31.2496L9.12134 27.2981C9.33954 27.0799 9.69341 27.0799 9.91162 27.2981L10.7019 28.0884C10.9201 28.3067 10.9201 28.6605 10.7019 28.8787L6.75042 32.8301ZM0.558793 20.1177C0.250191 20.1177 0 19.8675 0 19.5589V18.4412C0 18.1325 0.250191 17.8824 0.558793 17.8824H6.14702C6.45562 17.8824 6.70581 18.1326 6.70581 18.4412V19.5589C6.70581 19.8675 6.45562 20.1177 6.14702 20.1177H0.558793ZM5.16986 6.75042C4.95165 6.53214 4.95165 6.17834 5.16986 5.96014L5.96014 5.16986C6.17834 4.95158 6.53222 4.95158 6.75042 5.16986L10.7019 9.12134C10.9201 9.33954 10.9201 9.69341 10.7019 9.91162L9.91162 10.7019C9.69341 10.9201 9.33954 10.9201 9.12134 10.7019L5.16986 6.75042Z" fill="url(#paint0_linear_227_1024)"/>
</g>
<defs>
<linearGradient id="paint0_linear_227_1024" x1="19" y1="0" x2="19" y2="38" gradientUnits="userSpaceOnUse">
<stop stop-color="#62A87C"/>
<stop offset="1" stop-color="#509168"/>
</linearGradient>
<clipPath id="clip0_227_1024">
<rect width="38" height="38" fill="white"/>
</clipPath>
</defs>
</svg>
