<svg width="29" height="29" viewBox="0 0 29 29" fill="none" xmlns="http://www.w3.org/2000/svg">
<g clip-path="url(#clip0_227_1015)">
<path d="M26.9254 3.09853C27.0935 3.26664 27.0932 3.53953 26.9292 3.70357L25.118 5.51471C24.952 5.68078 24.6836 5.68168 24.513 5.51097L23.9155 4.91352C23.7474 4.74541 23.7478 4.47252 23.9118 4.30849L25.7229 2.49735C25.889 2.33128 26.1573 2.33037 26.328 2.50109L26.9254 3.09853ZM17.8786 12.1453C18.0467 12.3134 18.0464 12.5863 17.8824 12.7504L16.0712 14.5615C15.9051 14.7276 15.6368 14.7285 15.4662 14.5578L14.8687 13.9603C14.7006 13.7922 14.701 13.5193 14.865 13.3553L16.6761 11.5442C16.8422 11.3781 17.1105 11.3772 17.2812 11.5479L17.8786 12.1453ZM14.8687 3.09853L15.4661 2.50109C15.6368 2.33037 15.9051 2.33133 16.0712 2.49735L17.8823 4.30849C18.0463 4.47252 18.0467 4.74541 17.8786 4.91352L17.2811 5.51097C17.1104 5.68168 16.8421 5.68072 16.6761 5.51471L14.8649 3.70357C14.7009 3.53953 14.7006 3.26664 14.8687 3.09853ZM23.9155 12.1453L24.5129 11.5479C24.6836 11.3772 24.952 11.3781 25.118 11.5442L26.9291 13.3553C27.0931 13.5193 27.0935 13.7922 26.9254 13.9603L26.3279 14.5578C26.1573 14.7285 25.8889 14.7275 25.7229 14.5615L23.9117 12.7504C23.7477 12.5863 23.7474 12.3134 23.9155 12.1453ZM9.38235 7.67679C9.38235 10.2674 7.282 12.3677 4.69115 12.3677C2.10001 12.3677 0 10.2676 0 7.67679H9.38235ZM5.5441 13.5866V20.4706C5.5441 24.0036 8.40779 26.8677 11.9401 26.8677H13.6481C17.182 26.8677 20.0441 24.0052 20.0441 20.4675V13.6468C20.0441 13.4144 20.2368 13.2205 20.4746 13.2205H21.3195C21.5609 13.2205 21.75 13.4114 21.75 13.6468V20.4675C21.75 24.9473 18.1243 28.5735 13.6481 28.5735H11.9401C7.46563 28.5735 3.8382 24.9456 3.8382 20.4706V13.5866C4.11675 13.6264 4.40154 13.6471 4.69115 13.6471C4.98075 13.6471 5.26554 13.6264 5.5441 13.5866ZM21.3195 3.83826H20.4746C20.2332 3.83826 20.0441 3.64789 20.0441 3.41306V0.85171C20.0441 0.61971 20.2368 0.426509 20.4746 0.426509H21.3195C21.5609 0.426509 21.75 0.616878 21.75 0.85171V3.41306C21.75 3.64506 21.5573 3.83826 21.3195 3.83826ZM12.7941 8.95189V8.10692C12.7941 7.86552 12.9845 7.67645 13.2193 7.67645H15.7806C16.0126 7.67645 16.2058 7.8692 16.2058 8.10692V8.95189C16.2058 9.19329 16.0155 9.38235 15.7806 9.38235H13.2193C12.9873 9.38235 12.7941 9.18961 12.7941 8.95189ZM25.5883 8.95189V8.10692C25.5883 7.86552 25.7786 7.67645 26.0135 7.67645H28.5748C28.8068 7.67645 29 7.8692 29 8.10692V8.95189C29 9.19329 28.8096 9.38235 28.5748 9.38235H26.0135C25.7815 9.38235 25.5883 9.18961 25.5883 8.95189ZM0.852951 4.2647H1.7059V0.85188C1.7059 0.616935 1.89497 0.426453 2.13637 0.426453H2.98134C3.21906 0.426453 3.4118 0.616822 3.4118 0.85188V4.2647H5.9706V0.85188C5.9706 0.616935 6.15967 0.426453 6.40107 0.426453H7.24604C7.48376 0.426453 7.6765 0.616822 7.6765 0.85188V4.2647H8.52946C9.00054 4.2647 9.38241 4.64658 9.38241 5.11766V6.39705H0V5.11766C0 4.64658 0.381871 4.2647 0.852951 4.2647ZM20.897 11.5147C19.2483 11.5147 17.9117 10.1782 17.9117 8.5294C17.9117 6.88065 19.2483 5.5441 20.897 5.5441C22.5458 5.5441 23.8823 6.88065 23.8823 8.5294C23.8823 10.1782 22.5458 11.5147 20.897 11.5147Z" fill="url(#paint0_linear_227_1015)"/>
</g>
<defs>
<linearGradient id="paint0_linear_227_1015" x1="14.5" y1="0.426453" x2="14.5" y2="28.5735" gradientUnits="userSpaceOnUse">
<stop stop-color="#62A87C"/>
<stop offset="1" stop-color="#509168"/>
</linearGradient>
<clipPath id="clip0_227_1015">
<rect width="29" height="29" fill="white"/>
</clipPath>
</defs>
</svg>
