<svg width="32" height="32" viewBox="0 0 32 32" fill="none" xmlns="http://www.w3.org/2000/svg">
<path d="M11 2C7 2 4 3.7 4 6C4 8.3 7 10 11 10C15 10 18 8.3 18 6C18 3.7 15 2 11 2Z" fill="url(#paint0_linear_227_976)"/>
<path d="M11 12C8.1 12 5.6 11.2 4 9.90002V11C4 13.3 7 15 11 15C15 15 18 13.3 18 11V9.90002C16.4 11.2 13.9 12 11 12Z" fill="url(#paint1_linear_227_976)"/>
<path d="M11 17C8.1 17 5.6 16.2 4 14.9V16C4 18.3 7 20 11 20C15 20 18 18.3 18 16V14.9C16.4 16.2 13.9 17 11 17Z" fill="url(#paint2_linear_227_976)"/>
<path d="M11 22C8.1 22 5.6 21.2 4 19.9V21C4 23.3 7 25 11 25C15 25 18 23.3 18 21V19.9C16.4 21.2 13.9 22 11 22Z" fill="url(#paint3_linear_227_976)"/>
<path d="M11 27C8.1 27 5.6 26.2 4 24.9V26C4 28.3 7 30 11 30C15 30 18 28.3 18 26V24.9C16.4 26.2 13.9 27 11 27Z" fill="url(#paint4_linear_227_976)"/>
<path d="M21 24C20.7 24 20.3 24 20 24V27H21C25 27 28 25.3 28 23V21.9C26.4 23.2 23.9 24 21 24Z" fill="url(#paint5_linear_227_976)"/>
<path d="M21 19C20.7 19 20.3 19 20 19V22H21C25 22 28 20.3 28 18V16.9C26.4 18.2 23.9 19 21 19Z" fill="url(#paint6_linear_227_976)"/>
<path d="M21 9C20.7 9 20.3 9 20 9V17H21C25 17 28 15.3 28 13C28 10.7 25 9 21 9Z" fill="url(#paint7_linear_227_976)"/>
<defs>
<linearGradient id="paint0_linear_227_976" x1="11" y1="2" x2="11" y2="10" gradientUnits="userSpaceOnUse">
<stop stop-color="#62A87C"/>
<stop offset="1" stop-color="#509168"/>
</linearGradient>
<linearGradient id="paint1_linear_227_976" x1="11" y1="9.90002" x2="11" y2="15" gradientUnits="userSpaceOnUse">
<stop stop-color="#62A87C"/>
<stop offset="1" stop-color="#509168"/>
</linearGradient>
<linearGradient id="paint2_linear_227_976" x1="11" y1="14.9" x2="11" y2="20" gradientUnits="userSpaceOnUse">
<stop stop-color="#62A87C"/>
<stop offset="1" stop-color="#509168"/>
</linearGradient>
<linearGradient id="paint3_linear_227_976" x1="11" y1="19.9" x2="11" y2="25" gradientUnits="userSpaceOnUse">
<stop stop-color="#62A87C"/>
<stop offset="1" stop-color="#509168"/>
</linearGradient>
<linearGradient id="paint4_linear_227_976" x1="11" y1="24.9" x2="11" y2="30" gradientUnits="userSpaceOnUse">
<stop stop-color="#62A87C"/>
<stop offset="1" stop-color="#509168"/>
</linearGradient>
<linearGradient id="paint5_linear_227_976" x1="24" y1="21.9" x2="24" y2="27" gradientUnits="userSpaceOnUse">
<stop stop-color="#62A87C"/>
<stop offset="1" stop-color="#509168"/>
</linearGradient>
<linearGradient id="paint6_linear_227_976" x1="24" y1="16.9" x2="24" y2="22" gradientUnits="userSpaceOnUse">
<stop stop-color="#62A87C"/>
<stop offset="1" stop-color="#509168"/>
</linearGradient>
<linearGradient id="paint7_linear_227_976" x1="24" y1="9" x2="24" y2="17" gradientUnits="userSpaceOnUse">
<stop stop-color="#62A87C"/>
<stop offset="1" stop-color="#509168"/>
</linearGradient>
</defs>
</svg>
