<svg width="36" height="36" viewBox="0 0 36 36" fill="none" xmlns="http://www.w3.org/2000/svg">
<path d="M24.75 24.75C24.75 25.0484 24.8685 25.3345 25.0795 25.5455C25.2905 25.7565 25.5766 25.875 25.875 25.875H31.5V23.625H25.875C25.5766 23.625 25.2905 23.7435 25.0795 23.9545C24.8685 24.1655 24.75 24.4516 24.75 24.75Z" fill="url(#paint0_linear_227_1004)"/>
<path d="M29.25 15.9637V14.625C29.25 13.7299 28.8944 12.8714 28.2615 12.2385C27.6286 11.6056 26.7701 11.25 25.875 11.25H22.77L20.52 13.5H25.875C26.1734 13.5 26.4595 13.6185 26.6705 13.8295C26.8815 14.0405 27 14.3266 27 14.625V15.75H7.875C7.57663 15.75 7.29048 15.6315 7.0795 15.4205C6.86853 15.2095 6.75 14.9234 6.75 14.625C6.75 14.3266 6.86853 14.0405 7.0795 13.8295C7.29048 13.6185 7.57663 13.5 7.875 13.5H13.23L10.98 11.25H7.875C6.97989 11.25 6.12145 11.6056 5.48851 12.2385C4.85558 12.8714 4.5 13.7299 4.5 14.625V30.375C4.5 31.2701 4.85558 32.1286 5.48851 32.7615C6.12145 33.3944 6.97989 33.75 7.875 33.75H28.125C29.0201 33.75 29.8786 33.3944 30.5115 32.7615C31.1444 32.1286 31.5 31.2701 31.5 30.375V28.125H25.875C24.9799 28.125 24.1214 27.7694 23.4885 27.1365C22.8556 26.5036 22.5 25.6451 22.5 24.75C22.5 23.8549 22.8556 22.9964 23.4885 22.3635C24.1214 21.7306 24.9799 21.375 25.875 21.375H31.5V19.125C31.4957 18.4306 31.2774 17.7544 30.8747 17.1887C30.4721 16.623 29.9047 16.1952 29.25 15.9637Z" fill="url(#paint1_linear_227_1004)"/>
<path d="M16.0763 13.1737C16.1809 13.2792 16.3053 13.3629 16.4424 13.42C16.5795 13.4771 16.7265 13.5065 16.875 13.5065C17.0235 13.5065 17.1706 13.4771 17.3077 13.42C17.4448 13.3629 17.5692 13.2792 17.6738 13.1737L21.0488 9.79875C21.2049 9.64055 21.3106 9.43965 21.3527 9.22142C21.3947 9.00318 21.3712 8.77737 21.285 8.5725C21.2006 8.36705 21.0573 8.19119 20.8731 8.06706C20.6889 7.94294 20.4721 7.87611 20.25 7.875H18V3.375C18 3.07663 17.8815 2.79048 17.6705 2.5795C17.4596 2.36853 17.1734 2.25 16.875 2.25C16.5767 2.25 16.2905 2.36853 16.0795 2.5795C15.8686 2.79048 15.75 3.07663 15.75 3.375V7.875H13.5C13.2779 7.87611 13.0611 7.94294 12.8769 8.06706C12.6928 8.19119 12.5494 8.36705 12.465 8.5725C12.3789 8.77737 12.3553 9.00318 12.3974 9.22142C12.4394 9.43965 12.5452 9.64055 12.7013 9.79875L16.0763 13.1737Z" fill="url(#paint2_linear_227_1004)"/>
<defs>
<linearGradient id="paint0_linear_227_1004" x1="28.125" y1="23.625" x2="28.125" y2="25.875" gradientUnits="userSpaceOnUse">
<stop stop-color="#62A87C"/>
<stop offset="1" stop-color="#509168"/>
</linearGradient>
<linearGradient id="paint1_linear_227_1004" x1="18" y1="11.25" x2="18" y2="33.75" gradientUnits="userSpaceOnUse">
<stop stop-color="#62A87C"/>
<stop offset="1" stop-color="#509168"/>
</linearGradient>
<linearGradient id="paint2_linear_227_1004" x1="16.875" y1="2.25" x2="16.875" y2="13.5065" gradientUnits="userSpaceOnUse">
<stop stop-color="#62A87C"/>
<stop offset="1" stop-color="#509168"/>
</linearGradient>
</defs>
</svg>
