<svg width="33" height="33" viewBox="0 0 33 33" fill="none" xmlns="http://www.w3.org/2000/svg">
<path fill-rule="evenodd" clip-rule="evenodd" d="M0.9706 31.3015C0.434543 31.3015 0 30.8669 0 30.3309V18.6838C0 18.1478 0.434543 17.7132 0.9706 17.7132H27.1765C27.7125 17.7132 28.1471 18.1478 28.1471 18.6838V30.3309C28.1471 30.8669 27.7125 31.3015 27.1765 31.3015H0.9706ZM23.2941 25.4779H24.7455C25.016 25.4779 25.2353 25.2628 25.2353 24.9881V24.0267C25.2353 23.7561 25.0202 23.5368 24.7455 23.5368H23.2941V22.0855C23.2941 21.8149 23.079 21.5957 22.8043 21.5957H21.8428C21.5723 21.5957 21.3529 21.8108 21.3529 22.0855V23.5368H19.9016C19.6311 23.5368 19.4117 23.752 19.4117 24.0267V24.9881C19.4117 25.2587 19.6269 25.4779 19.9016 25.4779H21.3529V26.9292C21.3529 27.1998 21.5681 27.4191 21.8428 27.4191H22.8043C23.0748 27.4191 23.2941 27.2039 23.2941 26.9292V25.4779ZM3.88233 24.9881C3.88233 25.2587 4.10354 25.4779 4.36883 25.4779H9.21937C9.48808 25.4779 9.70587 25.2628 9.70587 24.9881V24.0267C9.70587 23.7561 9.48466 23.5368 9.21937 23.5368H4.36883C4.10012 23.5368 3.88233 23.752 3.88233 24.0267V24.9881ZM29.6029 27.9044V21.1103H32.0294C32.5655 21.1103 33 21.5448 33 22.0809V26.9338C33 27.4699 32.5655 27.9044 32.0294 27.9044H29.6029ZM16.0147 6.06621C16.0147 6.33427 15.7975 6.55148 15.5295 6.55148H14.5589C14.2909 6.55148 14.0736 6.33421 14.0736 6.06621V2.18381C14.0736 1.91575 14.2909 1.69855 14.5589 1.69855H15.5295C15.7975 1.69855 16.0147 1.91582 16.0147 2.18381V6.06621ZM22.1935 8.24196C22.0595 8.47405 21.7627 8.55359 21.5306 8.41959L20.69 7.93432C20.4579 7.80032 20.3784 7.50352 20.5124 7.27142L22.4535 3.9091C22.5875 3.677 22.8843 3.59747 23.1164 3.73146L23.957 4.21673C24.1891 4.35079 24.2686 4.64754 24.1346 4.87963L22.1935 8.24196ZM26.4566 13.2155C26.2245 13.3495 25.9277 13.27 25.7937 13.0379L25.3084 12.1974C25.1744 11.9653 25.254 11.6685 25.4861 11.5345L28.8483 9.59328C29.0803 9.45928 29.3772 9.53882 29.5112 9.77092L29.9964 10.6114C30.1304 10.8435 30.0509 11.1404 29.8188 11.2743L26.4566 13.2155ZM4.60221 11.5345C4.83431 11.6685 4.91384 11.9653 4.77984 12.1974L4.29458 13.0379C4.16058 13.27 3.86377 13.3495 3.63168 13.2155L0.269414 11.2744C0.0373183 11.1404 -0.0422168 10.8436 0.0917813 10.6115L0.577049 9.77098C0.711047 9.53888 1.00785 9.45935 1.23995 9.59335L4.60221 11.5345ZM9.57586 7.27136C9.70986 7.50345 9.63033 7.80026 9.39823 7.93426L8.5577 8.41953C8.3256 8.55352 8.0288 8.47399 7.8948 8.24189L5.95354 4.8797C5.81954 4.6476 5.89907 4.35079 6.13117 4.2168L6.9717 3.73153C7.2038 3.59753 7.5006 3.67707 7.6346 3.90916L9.57586 7.27136ZM6.14612 16.2573C7.21127 12.3421 10.7915 9.46322 15.0441 9.46322C19.2968 9.46322 22.877 12.3421 23.9421 16.2573H6.14612Z" fill="url(#paint0_linear_227_995)"/>
<defs>
<linearGradient id="paint0_linear_227_995" x1="16.5" y1="1.69855" x2="16.5" y2="31.3015" gradientUnits="userSpaceOnUse">
<stop stop-color="#62A87C"/>
<stop offset="1" stop-color="#509168"/>
</linearGradient>
</defs>
</svg>
